<?xml version="1.0" encoding="UTF-8"?> <svg xmlns="http://www.w3.org/2000/svg" width="200" height="200" viewBox="0 0 200 200" fill="none"><path d="M149.737 149.737C177.303 122.171 177.303 77.4782 149.737 49.9124C122.171 22.3465 77.4782 22.3465 49.9124 49.9124C22.3465 77.4782 22.3465 122.171 49.9124 149.737C77.4782 177.303 122.171 177.303 149.737 149.737Z" fill="white"></path><path d="M99.8076 175.424C58.1198 175.424 24.2102 141.515 24.2102 99.8268C24.2102 58.139 58.1198 24.2294 99.8076 24.2294C141.495 24.2294 175.405 58.139 175.405 99.8268C175.405 141.515 141.495 175.424 99.8076 175.424ZM99.8076 34.2508C63.6257 34.2508 34.2025 63.674 34.2025 99.8559C34.2025 136.038 63.6257 165.461 99.8076 165.461C135.99 165.461 165.413 136.038 165.413 99.8559C165.413 63.674 135.99 34.2508 99.8076 34.2508Z" fill="#5cbcff"></path><path fill-rule="evenodd" clip-rule="evenodd" d="M99.83 148.66C126.798 148.66 148.66 126.798 148.66 99.83C148.66 72.8619 126.798 51 99.83 51C72.8619 51 51 72.8619 51 99.83C51 126.798 72.8619 148.66 99.83 148.66ZM73.6 73H126.4C130.03 73 133 75.9813 133 79.625V119.375C133 123.019 130.03 126 126.4 126H73.6C69.97 126 67 123.019 67 119.375L67.033 79.625C67.033 75.9813 69.97 73 73.6 73ZM101.749 101.719L125.08 87.0781C125.411 86.8917 125.701 86.6398 125.932 86.3376C126.163 86.0355 126.33 85.6895 126.424 85.3204C126.519 84.9514 126.537 84.567 126.479 84.1906C126.42 83.8142 126.287 83.4536 126.086 83.1306C125.884 82.8076 125.62 82.5289 125.309 82.3114C124.997 82.0939 124.645 81.9421 124.273 81.8652C123.902 81.7883 123.518 81.788 123.146 81.8641C122.775 81.9402 122.422 82.0913 122.11 82.3081L100 96.1875L77.89 82.3081C77.578 82.0913 77.2255 81.9402 76.8537 81.8641C76.4818 81.788 76.0985 81.7883 75.7268 81.8652C75.3552 81.9421 75.0029 82.0939 74.6914 82.3114C74.3799 82.5289 74.1155 82.8076 73.9144 83.1306C73.7133 83.4536 73.5796 83.8142 73.5213 84.1906C73.4631 84.567 73.4815 84.9514 73.5755 85.3204C73.6695 85.6895 73.8371 86.0355 74.0682 86.3376C74.2993 86.6398 74.5891 86.8917 74.92 87.0781L98.251 101.719C99.307 102.382 100.693 102.382 101.749 101.719Z" fill="#5cbcff"></path></svg> 